HIERARCHY
ROOT Hips
{
	OFFSET 0.00000 0.00000 0.00000
	CHANNELS 6 Xposition Yposition Zposition Zrotation Yrotation Xrotation 
	JOINT LHipJoint
	{
		OFFSET 0 0 0
		CHANNELS 3 Zrotation Yrotation Xrotation
		JOINT LeftHip
		{
			OFFSET 1.84395 -1.68683 0.74144
			CHANNELS 3 Zrotation Yrotation Xrotation
			JOINT LeftKnee
			{
				OFFSET 2.27037 -6.23779 0.00000
				CHANNELS 3 Zrotation Yrotation Xrotation
				JOINT LeftAnkle
				{
					OFFSET 2.56918 -7.05877 0.00000
					CHANNELS 3 Zrotation Yrotation Xrotation
					JOINT LeftToe
					{
						OFFSET 0.22276 -0.61202 1.71784
						CHANNELS 3 Zrotation Yrotation Xrotation
						End Site
						{
							OFFSET 0.00000 -0.00000 0.91613
						}
					}
				}
			}
		}
	}
	JOINT RHipJoint
	{
		OFFSET 0 0 0
		CHANNELS 3 Zrotation Yrotation Xrotation
		JOINT RightHip
		{
			OFFSET -1.76833 -1.68684 0.74144
			CHANNELS 3 Zrotation Yrotation Xrotation
			JOINT RightKnee
			{
				OFFSET -2.49360 -6.85110 0.00000
				CHANNELS 3 Zrotation Yrotation Xrotation
				JOINT RightAnkle
				{
					OFFSET -2.55538 -7.02085 0.00000
					CHANNELS 3 Zrotation Yrotation Xrotation
					JOINT RightToe
					{
						OFFSET -0.21516 -0.59115 1.68050
						CHANNELS 3 Zrotation Yrotation Xrotation
						End Site
						{
							OFFSET -0.00000 -0.00000 0.89604
						}
					}
				}
			}
		}
	}
	JOINT lowerback
	{
		OFFSET 0 0 0
		CHANNELS 3 Zrotation Yrotation Xrotation
		JOINT Chest
		{
			OFFSET 0.06382 1.72312 -0.19613
			CHANNELS 3 Zrotation Yrotation Xrotation
			JOINT Chest2
			{
				OFFSET -0.00055 1.73507 0.23859
				CHANNELS 3 Zrotation Yrotation Xrotation
				JOINT lowerneck
				{
					OFFSET 0 0 0
					CHANNELS 3 Zrotation Yrotation Xrotation
					JOINT Neck
					{
						OFFSET 0.03638 1.65562 0.09633
						CHANNELS 3 Zrotation Yrotation Xrotation
						JOINT Head
						{
							OFFSET 0.06388 1.62807 -0.32386
							CHANNELS 3 Zrotation Yrotation Xrotation
							End Site
							{
								OFFSET 0.00995 1.67644 -0.12021
							}
						}
					}
				}
				JOINT LeftCollar
				{
					OFFSET 0 0 0
					CHANNELS 3 Zrotation Yrotation Xrotation
					JOINT LeftShoulder
					{
						OFFSET 3.09648 1.42991 0.28122
CHANNELS 3 Zrotation Xrotation Yrotation
						JOINT LeftElbow
						{
OFFSET 0 -5.118780 -0.000000
CHANNELS 3 Zrotation Xrotation Yrotation
							JOINT LeftWrist
							{
OFFSET 0 -3.599710 0.000000
CHANNELS 3 Zrotation Xrotation Yrotation
								JOINT lhand
								{
									OFFSET 0 0 0
CHANNELS 3 Zrotation Xrotation Yrotation
									JOINT LFingers
									{
OFFSET 0 -0.628770 0.000000
CHANNELS 3 Zrotation Xrotation Yrotation
										End Site
										{
OFFSET 0 -0.506930 0.000000
										}
									}
								}
								JOINT LThumb
								{
OFFSET 0 0.000000 0.000000
CHANNELS 3 Zrotation Xrotation Yrotation
									End Site
									{
OFFSET 0 -0.514670 0.514670
									}
								}
							}
						}
					}
				}
				JOINT RightCollar
				{
					OFFSET 0 0 0
					CHANNELS 3 Zrotation Yrotation Xrotation
					JOINT RightShoulder
					{
						OFFSET -3.33565 1.14597 0.05047
CHANNELS 3 Zrotation Xrotation Yrotation
						JOINT RightElbow
						{
OFFSET 0 -5.490200 0.000000
CHANNELS 3 Zrotation Xrotation Yrotation
							JOINT RightWrist
							{
OFFSET 0 -3.206590 -0.000000
CHANNELS 3 Zrotation Xrotation Yrotation
								JOINT rhand
								{
									OFFSET 0 0 0
CHANNELS 3 Zrotation Xrotation Yrotation
									JOINT RFingers
									{
OFFSET 0 -0.691880 0.000000
CHANNELS 3 Zrotation Xrotation Yrotation
										End Site
										{
OFFSET 0 -0.557810 0.000000
										}
									}
								}
								JOINT RThumb
								{
OFFSET 0 0.000000 0.000000
CHANNELS 3 Zrotation Xrotation Yrotation
									End Site
									{
OFFSET 0 -0.566330 0.566330
									}
								}
							}
						}
					}
				}
			}
		}
	}
}
MOTION
Frames: 8
Frame Time: 0.008333333333333333
-0.507391 17.515055 7.471572 -7.315661 -6.300019 5.586248 0.000000 0.000000 0.000000 -22.241386 -33.121365 24.467965 0.043340 -1.343324 -3.693943 -4.309669 41.068833 -42.759881 0.753864 5.545120 15.470178 0.000000 0.000000 0.000000 26.873271 21.013683 7.478147 -0.012209 -0.713083 1.959552 0.094958 -12.172651 -15.989524 -0.008045 0.577482 -1.586865 5.254096 3.241472 1.478895 0.337545 4.728553 -8.156588 -2.991377 1.943541 -9.064353 3.372472 0.317919 -14.197965 0.552573 -0.694718 33.254566 -0.476875 0.209583 13.609580 0.000000 0.000000 0.000000 4.669333 10.994300 -55.650593 124.036783 -55.134105 88.995029 40.521404 -57.265581 2.184050 0.000000 0.000000 0.000000 -7.125000 0.000000 0.000000 10.632965 27.066035 4.705005 0.000000 0.000000 0.000000 -8.206430 -20.177364 78.421138 -99.371090 -59.665327 -68.106434 20.390960 -19.819348 56.359369 0.000000 0.000000 0.000000 7.125000 0.000000 0.000000 90.881879 65.313180 -63.623652
-0.509232 17.518250 7.472835 -7.271997 -6.078192 5.617374 0.000000 0.000000 0.000000 -22.284991 -33.288802 24.490702 0.044560 -1.362240 -3.746154 -4.395836 41.144660 -42.565904 0.724850 5.440052 15.167889 0.000000 0.000000 0.000000 26.834464 21.015977 7.485430 -0.011728 -0.699251 1.921537 0.108641 -12.365644 -16.086411 -0.007478 0.557847 -1.532882 5.245076 3.105750 1.532352 0.354384 4.550816 -8.161729 -2.958572 1.855442 -9.119165 3.699835 0.498178 -14.248262 0.068612 -0.358960 33.352808 -0.674380 0.333542 13.666674 0.000000 0.000000 0.000000 4.485225 11.501270 -55.173075 123.047719 -55.441378 88.182079 41.848376 -57.256551 1.900630 0.000000 0.000000 0.000000 -7.125000 0.000000 0.000000 11.674305 27.370769 5.098778 0.000000 0.000000 0.000000 -7.907241 -18.992691 79.579636 -99.697460 -59.641682 -68.388181 14.664420 -12.819022 54.406365 0.000000 0.000000 0.000000 7.125000 0.000000 0.000000 83.883801 66.772975 -58.130405
-0.511358 17.518798 7.472596 -7.316189 -6.046112 5.656159 0.000000 0.000000 0.000000 -22.276899 -33.414966 24.596739 0.046607 -1.393051 -3.830878 -4.414366 41.224440 -42.670072 0.751407 5.536473 15.445308 0.000000 0.000000 0.000000 26.945878 21.195750 7.591941 -0.010793 -0.669496 1.839840 0.130152 -12.596894 -16.133341 -0.011096 0.680250 -1.869439 5.312206 2.990438 1.538811 0.412455 4.402861 -8.121818 -2.921368 1.781796 -9.091867 4.020701 0.708360 -14.350013 -0.302263 -0.019747 33.437554 -0.825569 0.472943 13.734061 0.000000 0.000000 0.000000 4.415459 11.833326 -55.084998 122.254654 -55.678353 87.528068 42.742297 -58.129960 2.152576 0.000000 0.000000 0.000000 -7.125000 0.000000 0.000000 12.300678 26.991304 5.498514 0.000000 0.000000 0.000000 -7.538371 -18.409959 81.142962 -99.192991 -59.678159 -67.952746 8.921177 -3.287150 52.103385 0.000000 0.000000 0.000000 7.125000 0.000000 0.000000 75.453958 68.020832 -51.512998
-0.511612 17.517943 7.472687 -7.257368 -6.152450 5.707069 0.000000 0.000000 0.000000 -22.422853 -33.496614 24.689300 0.047358 -1.403775 -3.860508 -4.320084 41.213358 -43.042641 0.783714 5.651554 15.776673 0.000000 0.000000 0.000000 26.848351 21.214650 7.545459 -0.010208 -0.652751 1.793879 0.120468 -12.510643 -16.139980 -0.006858 0.534042 -1.467493 5.277746 2.943426 1.488637 0.446255 4.334278 -8.078031 -2.856309 1.755155 -9.023966 4.201266 0.857726 -14.344866 -0.534703 0.229378 33.416989 -0.910676 0.572212 13.731008 0.000000 0.000000 0.000000 4.373439 12.030130 -54.923321 121.826221 -55.803351 87.173967 44.094257 -60.297390 2.766764 0.000000 0.000000 0.000000 -7.125000 0.000000 0.000000 13.191629 26.085967 6.202879 0.000000 0.000000 0.000000 -7.083251 -18.106145 82.056399 -98.862756 -59.701103 -67.667673 6.070346 2.525790 50.770825 0.000000 0.000000 0.000000 7.125000 0.000000 0.000000 70.590117 68.504184 -47.651558
-0.506594 17.512754 7.480222 -7.041108 -6.408381 5.667900 0.000000 0.000000 0.000000 -23.121222 -33.698983 25.202017 0.047656 -1.408917 -3.874611 -4.190080 41.396864 -43.982050 0.841067 5.849312 16.348019 0.000000 0.000000 0.000000 26.504095 20.905123 7.488558 -0.009140 -0.618444 1.699553 0.100785 -12.134140 -15.844011 -0.011761 0.694548 -1.908743 5.113161 3.006052 1.389629 0.402034 4.393887 -7.993477 -2.807399 1.801275 -8.872702 4.366919 0.958312 -14.291686 -0.609424 0.359022 33.329005 -0.948540 0.638470 13.685853 0.000000 0.000000 0.000000 4.233279 12.249917 -54.235659 121.633911 -55.858593 87.014810 43.659351 -64.312798 3.888380 0.000000 0.000000 0.000000 -7.125000 0.000000 0.000000 12.664790 24.610708 6.386867 0.000000 0.000000 0.000000 -6.606651 -17.658621 81.612648 -99.017724 -59.690382 -67.801433 3.658317 8.127138 49.351480 0.000000 0.000000 0.000000 7.125000 0.000000 0.000000 65.660904 68.724139 -43.609328
-0.506413 17.512530 7.461854 -7.075479 -6.701430 5.726983 0.000000 0.000000 0.000000 -22.875401 -33.625354 24.890247 0.044866 -1.367338 -3.760223 -4.097424 41.310092 -44.164733 0.878801 5.976344 16.715831 0.000000 0.000000 0.000000 26.499691 21.221924 7.288466 -0.011972 -0.704471 1.935953 0.092301 -12.061527 -15.858765 -0.012626 0.724073 -1.989967 5.131974 3.125011 1.607767 0.379696 4.567003 -7.966836 -2.868539 1.881015 -8.954985 4.343016 0.948056 -14.468406 -0.452707 0.286237 33.296707 -0.892902 0.624794 13.709207 0.000000 0.000000 0.000000 4.233559 12.404418 -53.475486 121.413002 -55.921483 86.831957 42.920810 -70.115736 5.987496 0.000000 0.000000 0.000000 -7.125000 0.000000 0.000000 11.751557 21.887049 6.656392 0.000000 0.000000 0.000000 -5.994236 -16.812317 80.239172 -100.614061 -59.567878 -69.178570 0.683304 17.852573 47.650816 0.000000 0.000000 0.000000 7.125000 0.000000 0.000000 59.554661 68.906551 -38.746463
-0.506601 17.512986 7.461787 -7.188246 -6.787001 5.836438 0.000000 0.000000 0.000000 -22.439560 -33.350213 24.446426 0.043707 -1.349957 -3.712230 -4.131605 41.158959 -43.699093 0.864968 5.930286 16.582247 0.000000 0.000000 0.000000 26.655225 21.475072 7.310084 -0.011587 -0.695291 1.910751 0.098220 -12.184046 -15.958754 -0.013306 0.744993 -2.047415 5.237585 3.179238 1.743896 0.390560 4.662644 -8.090042 -2.936738 1.911364 -9.158930 4.305457 0.912859 -14.528402 -0.322971 0.195851 33.388637 -0.849110 0.600119 13.760685 0.000000 0.000000 0.000000 4.231688 12.800210 -52.839733 121.198741 -55.981958 86.654469 43.458311 -75.087872 8.368846 0.000000 0.000000 0.000000 -7.125000 0.000000 0.000000 11.683935 18.650770 7.491107 0.000000 0.000000 0.000000 -6.310410 -16.716693 80.078110 -103.398863 -59.309687 -71.576777 -4.159066 28.670415 45.950205 0.000000 0.000000 0.000000 7.125000 0.000000 0.000000 51.790144 69.570920 -33.403290
-0.503641 17.514865 7.468853 -7.313714 -6.723595 5.890293 0.000000 0.000000 0.000000 -22.166725 -33.201981 24.267066 0.044047 -1.354967 -3.726156 -4.157438 41.059426 -43.375563 0.832446 5.820528 16.264480 0.000000 0.000000 0.000000 26.810271 21.453092 7.379839 -0.010140 -0.649954 1.786080 0.108577 -12.269135 -15.937876 -0.015098 0.792079 -2.176960 5.370268 3.171377 1.670320 0.467451 4.663221 -8.124066 -2.924931 1.904970 -9.151227 4.309029 0.916498 -14.420062 -0.360881 0.220096 33.357305 -0.860923 0.605574 13.723351 0.000000 0.000000 0.000000 3.994533 13.008099 -52.067198 120.716169 -56.115761 86.254052 44.497472 -75.083035 7.817072 0.000000 0.000000 0.000000 -7.125000 0.000000 0.000000 12.499295 19.217894 7.874761 0.000000 0.000000 0.000000 -6.947835 -16.896974 80.161288 -106.715936 -58.911749 -74.422992 -7.422860 36.105025 44.240374 0.000000 0.000000 0.000000 7.125000 0.000000 0.000000 45.172857 69.569900 -28.513802
